<svg width="90" height="87" viewBox="0 0 90 87" fill="none" xmlns="http://www.w3.org/2000/svg">
<path d="M58.6512 86.25C57.9894 86.25 57.5483 86.25 56.8865 86.0294L22.0336 78.5294C19.6071 78.0882 17.4012 76.3235 16.2983 74.1176L0.857082 42.7941C-0.245859 40.5882 -0.245859 38.1617 0.636494 35.9559L7.91591 18.0882C8.79826 15.6617 11.0041 13.6765 13.4306 13.0147L49.1659 4.19116V7.05881L14.0924 15.8823C12.5483 16.1029 11.0041 17.4265 10.3424 18.9706L3.06296 36.8382C2.4012 38.3823 2.62179 39.9265 3.28355 41.4706L18.7247 72.7941C19.3865 74.3382 20.9306 75.4412 22.4747 75.6617L57.3277 83.3823C59.313 83.8235 61.2983 83.1617 62.6218 81.6176L84.6806 56.9117C87.1071 54.2647 87.7689 50.5147 86.6659 46.9853L74.313 9.48528H77.4012L89.313 46.3235C90.6365 50.7353 89.7542 55.5882 86.6659 58.897L64.6071 83.6029C63.063 85.3676 60.8571 86.25 58.6512 86.25Z" fill="#FF0000"/>
<path d="M62.8424 7.05882H59.0924V10.8088H55.7836V7.05882H52.0336V3.75H55.7836V0H59.0924V3.75H62.8424V7.05882Z" fill="#FF0000"/>
<path d="M75.8572 7.05882H72.1072V10.8088H68.7983V7.05882H65.0483V3.75H68.7983V0H72.1072V3.75H75.8572V7.05882Z" fill="#FF0000"/>
<path d="M48.5042 55.8087H41.0042V44.5588H29.0924V55.8087H21.813V28.4558H29.313V38.3823H41.2248V28.4558H48.5042V55.8087Z" fill="#FF0000"/>
<path d="M59.5336 49.6323H74.7542V55.8087H52.0336V28.4558H59.5336V49.6323Z" fill="#FF0000"/>
</svg>
